# xmcd
#
# Track frame offsets:
#	150
#	14920
#	35725
#	53435
#	73412
#
# Disc length: 1323 seconds
#
# Revision: 2
# Processed by: cddbd v1.5.2PL0 Copyright (c) Steve Scherf et al.
# Submitted via: audiograbber 1.83.01
#
DISCID=47052905
DTITLE=Various Artist - B&W (Bowers and Wilkins) presents: Very Audiophile New R
DTITLE=ecordings Volume 2 [Stockfisch] [CD-R]
DYEAR=2003
DGENRE=HighEnd
TTITLE0=Sara K. - Would You Break My Heart
TTITLE1=Allan Taylor - Colour To The Moon
TTITLE2=Paul Stephenson - If You Want My Love
TTITLE3=Mike Silver - Old Fashioned Saturday Night
TTITLE4=Chris Jones - Long After You're Gone
EXTD=
EXTT0=
EXTT1=
EXTT2=
EXTT3=
EXTT4=
PLAYORDER=
